# xmcd CD database file
#
# Track frame offsets:
#	150
#	38316
#	65068
#	104437
#	153064
#
# Disc length: 2549 seconds
#
# Revision: 0
# Processed by: cddbd v1.4PL0 Copyright (c) Steve Scherf et al.
# Submitted via: CDex 1.50beta10
#
DISCID=3209f305
DTITLE=Maneri, Mat - For Consequence
DYEAR=2003
DGENRE=Jazz
TTITLE0=For Consequence
TTITLE1=Etum
TTITLE2=Good-Bye
TTITLE3=Abundance
TTITLE4=Laura
EXTD=YEAR: 2003
EXTT0=
EXTT1=
EXTT2=
EXTT3=
EXTT4=
PLAYORDER=
